<svg xmlns="http://www.w3.org/2000/svg" version="1.1" xmlns:xlink="http://www.w3.org/1999/xlink" xmlns:svgjs="http://svgjs.dev/svgjs" width="1000" height="874" viewBox="0 0 1000 874"><g transform="matrix(1,0,0,1,0.6595236398339921,0.2672782874618065)"><svg viewBox="0 0 374 327" data-background-color="#282634" preserveAspectRatio="xMidYMid meet" height="874" width="1000" xmlns="http://www.w3.org/2000/svg" xmlns:xlink="http://www.w3.org/1999/xlink"><g id="tight-bounds" transform="matrix(1,0,0,1,-0.24666184129790736,-0.10000000000002274)"><svg viewBox="0 0 374.4933236825958 327.2" height="327.2" width="374.4933236825958"><g><svg viewBox="0 0 374.4933236825958 327.2" height="327.2" width="374.4933236825958"><g><svg viewBox="0 0 374.4933236825958 327.2" height="327.2" width="374.4933236825958"><g id="textblocktransform"><svg viewBox="0 0 374.4933236825958 327.2" height="327.2" width="374.4933236825958" id="textblock"><g><svg viewBox="0 0 374.4933236825958 327.2" height="327.2" width="374.4933236825958"><g transform="matrix(1,0,0,1,0,0)"><svg width="374.4933236825958" viewBox="12.760809898376465 -25.46540069580078 28.962902069091797 25.305288314819336" height="327.2" data-palette-color="#ff4057"><path d="M12.761-23.601l9.794-1.864 3.411 17.918c0.17 0.891 0.177 1.714 0.022 2.469-0.155 0.756-0.453 1.433-0.896 2.034-0.436 0.599-0.998 1.103-1.687 1.512-0.695 0.411-1.489 0.701-2.379 0.87v0c-1.775 0.338-3.233 0.127-4.376-0.633-1.15-0.765-2.014-1.883-2.592-3.354v0l2.281-1.066c0.394 0.963 0.915 1.706 1.564 2.227 0.649 0.521 1.54 0.674 2.672 0.459v0c1.067-0.203 1.835-0.679 2.304-1.426 0.47-0.741 0.58-1.766 0.331-3.077v0l-2.872-15.089-7.132 1.358zM23.694-1.473l3.748-23.371 7.336 1.176c2.699 0.433 4.636 1.699 5.812 3.798 1.175 2.106 1.436 5.19 0.785 9.251v0c-0.651 4.061-1.864 6.905-3.637 8.532-1.773 1.626-4.009 2.223-6.708 1.79v0zM26.755-3.382l4.65 0.745c1.672 0.268 3.115-0.098 4.329-1.098 1.213-0.994 1.993-2.574 2.34-4.739v0l0.838-5.224c0.347-2.166 0.1-3.91-0.741-5.233-0.841-1.323-2.098-2.119-3.77-2.387v0l-4.65-0.746z" opacity="1" transform="matrix(1,0,0,1,0,0)" fill="#ff4057" class="wordmark-text-0" data-fill-palette-color="primary" id="text-0"></path></svg></g></svg></g></svg></g></svg></g><g></g></svg></g><defs></defs></svg><rect width="374.4933236825958" height="327.2" fill="none" stroke="none" visibility="hidden"></rect></g></svg></g></svg>