<?xml version="1.0" standalone="no"?>
<!DOCTYPE svg PUBLIC "-//W3C//DTD SVG 20010904//EN"
 "http://www.w3.org/TR/2001/REC-SVG-20010904/DTD/svg10.dtd">
<svg version="1.0" xmlns="http://www.w3.org/2000/svg"
 width="300.000000pt" height="300.000000pt" viewBox="0 0 300.000000 300.000000"
 preserveAspectRatio="xMidYMid meet">
<metadata>
Created by potrace 1.10, written by Peter Selinger 2001-2011
</metadata>
<g transform="translate(0.000000,300.000000) scale(0.100000,-0.100000)"
fill="#000000" stroke="none">
<path d="M1505 2438 c-30 -20 -59 -50 -74 -76 l-23 -44 28 15 c73 38 154 18
154 -36 0 -21 -5 -22 -78 -23 -71 0 -92 -6 -265 -72 -115 -44 -203 -72 -226
-72 -48 0 -79 24 -87 67 -6 28 -1 38 30 69 l37 37 -32 -7 c-71 -14 -138 -98
-139 -172 0 -17 10 -50 23 -74 42 -80 145 -111 247 -75 24 8 46 13 49 9 3 -3
6 -153 5 -333 l0 -326 -27 -58 -26 -58 37 7 c109 20 212 83 277 172 19 26 51
87 71 135 21 48 41 90 46 93 4 3 8 -24 8 -61 0 -82 -34 -155 -112 -240 -98
-107 -217 -165 -341 -165 -116 1 -191 48 -218 140 -22 71 19 140 83 140 36 -1
55 -12 80 -49 l17 -23 11 42 c41 151 -114 263 -264 191 -97 -48 -151 -149
-150 -281 2 -143 79 -267 207 -330 219 -107 444 -23 628 235 l54 76 3 -58 3
-58 -113 -111 c-112 -110 -176 -153 -247 -169 l-34 -7 6 -108 c6 -118 22 -163
74 -212 36 -34 73 -48 128 -48 55 0 92 14 129 48 55 51 81 149 56 207 -8 19
-9 19 -9 -3 -2 -51 -53 -112 -94 -112 -28 0 -67 45 -67 77 0 38 17 64 177 264
76 96 151 190 166 210 l27 36 0 276 0 277 39 0 c114 0 220 -89 261 -219 55
-174 -16 -359 -169 -438 -75 -39 -131 -44 -131 -12 0 15 -35 -22 -111 -117
l-111 -139 28 -6 c56 -13 229 -9 293 6 163 39 326 165 395 307 49 100 67 177
67 284 0 232 -114 424 -306 515 -228 108 -443 13 -576 -256 -52 -104 -79 -204
-79 -291 0 -41 -5 -55 -24 -74 l-25 -23 -7 28 c-10 39 1 162 21 233 l17 60
-27 69 c-23 55 -28 84 -28 153 0 134 46 228 142 289 48 31 141 53 141 33 0
-16 -71 -73 -116 -94 -25 -11 -51 -32 -63 -51 -32 -51 -54 -153 -47 -209 7
-49 24 -98 35 -98 3 0 19 26 36 57 41 79 134 175 235 242 100 67 144 120 160
193 16 73 -9 148 -63 192 -32 26 -49 31 -105 34 -62 4 -70 2 -117 -30z m295
-527 c0 -16 -58 -59 -131 -97 -49 -26 -90 -59 -140 -112 -68 -73 -75 -71 -33
11 43 83 121 152 213 188 50 20 91 24 91 10z"/>
</g>
</svg>
